<?xml version="1.0" encoding="UTF-8"?> <svg xmlns="http://www.w3.org/2000/svg" width="617" height="206" viewBox="0 0 617 206" fill="none"><path fill-rule="evenodd" clip-rule="evenodd" d="M379.33 201.067H415.978L390.426 169.44C405.896 151.52 415.978 128.16 415.978 102.345C415.978 46.1321 370.636 0.533669 314.142 0.533669C296.698 0.533669 280.32 4.90711 265.97 12.6396L255.995 0H219.559L243.032 29.172C223.933 47.6801 212.57 73.652 212.57 102.345C212.57 158.56 257.914 204.161 314.142 204.161C330.147 204.161 344.656 200.908 358.258 194.08L340.493 170.188C332.6 173.441 323.904 175.36 314.142 175.36C273.652 175.36 242.179 142.507 242.179 102.294V102.239V102.186C242.179 61.9719 273.707 28.8541 314.142 28.8541C354.898 28.8541 386.373 61.9719 386.373 102.186V102.239V102.294C386.373 118.88 380.664 133.813 371.434 146.027L344.976 112.532L293.177 46.9326C293.177 46.9326 279.253 53.1739 270.239 63.4669L379.33 201.067Z" fill="white"></path><path fill-rule="evenodd" clip-rule="evenodd" d="M101.57 177.178C61.0814 177.178 29.6066 144.239 29.6066 103.92C29.6066 63.6017 61.1344 30.3952 101.57 30.3952C142.326 30.3952 173.801 63.6017 173.801 103.92C173.854 144.239 142.326 177.178 101.57 177.178ZM101.57 1.83929C45.344 1.83929 0 47.5592 0 103.92C0 160.282 45.344 206 101.57 206C158.063 206 203.407 160.282 203.407 103.92C203.46 47.6123 158.063 1.83929 101.57 1.83929Z" fill="white"></path><path fill-rule="evenodd" clip-rule="evenodd" d="M590.262 135.394C578.887 159.432 556.983 176.389 526.361 176.389C485.479 176.389 454.644 143.604 454.644 103.197C454.644 62.2014 485.479 29.4162 526.627 29.4162C554.483 29.4162 576.175 44.1723 588.348 67.1385L614.08 51.0401C596.484 20.9909 564 0.762726 526.627 0.762726C470.061 0.762726 425.139 45.031 425.139 103.197C425.139 159.753 468.201 205.634 526.627 205.634C566.977 205.634 599.726 182.935 616.738 149.613L590.262 135.394Z" fill="white"></path></svg>
